<svg height='300px' width='300px'  fill="#000000" xmlns="http://www.w3.org/2000/svg" xmlns:xlink="http://www.w3.org/1999/xlink" version="1.1" x="0px" y="0px" viewBox="0 0 32 32" style="enable-background:new 0 0 32 32;" xml:space="preserve"><g><g><path d="M16,29C8.831543,29,3,23.1679688,3,16S8.831543,3,16,3s13,5.8320313,13,13S23.168457,29,16,29z M16,5    C9.9345703,5,5,9.9345703,5,16s4.9345703,11,11,11s11-4.9345703,11-11S22.0654297,5,16,5z"></path></g><g><g><path d="M16,21c-0.5522461,0-1-0.4472656-1-1v-8c0-0.5527344,0.4477539-1,1-1s1,0.4472656,1,1v8     C17,20.5527344,16.5522461,21,16,21z"></path></g><g><path d="M20,17h-8c-0.5522461,0-1-0.4472656-1-1s0.4477539-1,1-1h8c0.5522461,0,1,0.4472656,1,1S20.5522461,17,20,17z"></path></g></g></g></svg>