<svg height='300px' width='300px'  fill="#000000" xmlns="http://www.w3.org/2000/svg" xmlns:xlink="http://www.w3.org/1999/xlink" version="1.1" x="0px" y="0px" viewBox="0 0 100 100" enable-background="new 0 0 100 100" xml:space="preserve"><g><g><path d="M50.234,95C25.429,95,5.249,74.82,5.249,50.015S25.429,5.03,50.234,5.03s44.985,20.18,44.985,44.985S75.039,95,50.234,95z     M50.234,9.398c-22.396,0-40.617,18.221-40.617,40.617s18.221,40.617,40.617,40.617s40.617-18.221,40.617-40.617    S72.63,9.398,50.234,9.398z"></path></g><g><path d="M30.041,69.644l11.323-27.365c0.22-0.531,0.642-0.952,1.174-1.169l27.417-11.196c0.298-0.122,0.594,0.176,0.471,0.473    L59.104,57.752c-0.22,0.531-0.642,0.952-1.174,1.169L30.512,70.117C30.215,70.238,29.918,69.941,30.041,69.644z M44.703,45.633    l-6.88,16.627c-0.028,0.068,0.04,0.137,0.108,0.109l16.66-6.803c0.532-0.217,0.955-0.638,1.174-1.169l6.88-16.627    c0.028-0.068-0.04-0.137-0.108-0.109l-16.66,6.803C45.345,44.682,44.923,45.103,44.703,45.633z"></path></g></g></svg>