<svg height='300px' width='300px'  fill="#000000" xmlns="http://www.w3.org/2000/svg" xmlns:xlink="http://www.w3.org/1999/xlink" viewBox="0 0 60 52" version="1.1" x="0px" y="0px"><title>heart</title><desc>Created with Sketch.</desc><g stroke="none" stroke-width="1" fill="none" fill-rule="evenodd"><g transform="translate(-10.000000, -14.000000)" fill="#000000"><g transform="translate(10.000000, 14.000000)"><path d="M32.0995122,51.2989248 C31.4745119,51.7654631 30.7370116,52 29.9995113,52 C29.262011,52 28.5245107,51.7654631 27.8995105,51.2989248 C22.1045081,46.9656971 6.06325163,34.5745423 2.26325008,27.4382817 C-2.39550181,18.6894215 0.368249314,7.50010971 8.43950259,2.44932589 C11.0920037,0.788551089 13.9857548,0 16.840756,0 C21.848258,0 26.73701,2.42523832 29.9995113,6.82565765 C33.2645127,2.42397055 38.1520147,0 43.1582667,0 C46.0132678,0 48.907019,0.788551089 51.5607701,2.44932589 C59.6307734,7.50010971 62.3957745,18.6894215 57.7370226,27.4382817 C53.9370211,34.5745423 37.8945145,46.9656971 32.0995122,51.2989248 Z M50.2370196,4.57790672 C48.0745187,3.22393154 45.6270177,2.50891094 43.1582667,2.50891094 C38.8107649,2.50891094 34.7457633,4.62734964 32.0045122,8.32289051 L29.9995113,11.0270376 L27.9932605,8.32289051 C25.2545094,4.6286174 21.1882578,2.50891094 16.840756,2.50891094 C14.372005,2.50891094 11.924504,3.22393154 9.76200313,4.57790672 C2.7982503,8.93648975 0.424499337,18.6615306 4.46825098,26.2567228 C8.07575244,33.030402 24.4582591,45.5977765 29.3945111,49.2882463 C29.6182612,49.4555916 29.8470113,49.4910891 29.9995113,49.4910891 C30.1520114,49.4910891 30.3807615,49.4555916 30.6057616,49.2882463 C35.5407636,45.5977765 51.9245202,33.030402 55.5320217,26.2567228 C59.5757733,18.6615306 57.2020224,8.93648975 50.2370196,4.57790672 Z"></path></g></g></g></svg>