<svg height='300px' width='300px'  fill="#000000" xmlns="http://www.w3.org/2000/svg" xmlns:xlink="http://www.w3.org/1999/xlink" version="1.1" x="0px" y="0px" viewBox="0 0 48 48" enable-background="new 0 0 48 48" xml:space="preserve"><path d="M35.828,17.834c-0.154-0.089-0.346-0.089-0.5,0c-0.154,0.09-0.25,0.254-0.25,0.434v5.227H16.097c-0.276,0-0.5,0.223-0.5,0.5  c0,0.275,0.224,0.5,0.5,0.5h18.981v5.228c0,0.178,0.096,0.344,0.25,0.434c0.078,0.043,0.164,0.066,0.25,0.066  s0.174-0.023,0.25-0.066l9.92-5.728c0.154-0.089,0.25-0.255,0.25-0.433c0-0.18-0.096-0.344-0.25-0.434L35.828,17.834z   M36.078,28.855v-9.722l8.42,4.861L36.078,28.855z"></path><path d="M15.871,41.473c1.365,0.318,2.741,0.477,4.108,0.477c3.311-0.002,6.563-0.924,9.443-2.715  c2.324-1.443,4.316-3.438,5.764-5.762c0.146-0.234,0.074-0.543-0.16-0.689c-0.232-0.143-0.541-0.074-0.689,0.16  c-1.363,2.197-3.246,4.078-5.439,5.441c-3.844,2.391-8.39,3.143-12.798,2.113c-4.409-1.027-8.153-3.711-10.544-7.555  c-4.936-7.936-2.494-18.406,5.44-23.341c7.938-4.937,18.408-2.493,23.341,5.44c0.148,0.236,0.457,0.307,0.689,0.161  c0.234-0.146,0.307-0.454,0.16-0.688C29.959,6.112,18.87,3.526,10.468,8.753c-8.404,5.228-10.989,16.316-5.763,24.72  C7.237,37.543,11.202,40.385,15.871,41.473z"></path></svg>