<svg height='300px' width='300px'  fill="#000000" xmlns="http://www.w3.org/2000/svg" xmlns:xlink="http://www.w3.org/1999/xlink" version="1.1" x="0px" y="0px" viewBox="0 0 100 100" enable-background="new 0 0 100 100" xml:space="preserve"><g><path d="M50,7c23.7,0,43,19.3,43,43S73.7,93,50,93S7,73.7,7,50S26.3,7,50,7 M50,5C25.2,5,5,25.1,5,50c0,24.9,20.2,45,45,45   s45-20.1,45-45C95,25.1,74.8,5,50,5L50,5z"></path></g><path d="M50,57.1c11.4,0,21.9,6,27.7,15.8C70.9,81.3,60.8,86,50,86s-20.9-4.7-27.7-13C28.1,63.2,38.6,57.1,50,57.1 M50,55.1  c-13,0-24.4,7.3-30.1,18c7,9,17.9,14.8,30.1,14.8s23.2-5.8,30.1-14.8C74.4,62.4,63,55.1,50,55.1L50,55.1z"></path><path d="M50,57.1c11.4,0,21.9,6,27.7,15.8C70.9,81.3,60.8,86,50,86s-20.9-4.7-27.7-13C28.1,63.2,38.6,57.1,50,57.1 M50,55.1  c-13,0-24.4,7.3-30.1,18c7,9,17.9,14.8,30.1,14.8s23.2-5.8,30.1-14.8C74.4,62.4,63,55.1,50,55.1L50,55.1z"></path><path d="M50,28.5c6.1,0,11.1,5,11.1,11.1s-5,11.1-11.1,11.1s-11.1-5-11.1-11.1S43.9,28.5,50,28.5 M50,26.5  c-7.2,0-13.1,5.9-13.1,13.1S42.8,52.7,50,52.7s13.1-5.9,13.1-13.1S57.2,26.5,50,26.5L50,26.5z"></path></svg>