<svg height='300px' width='300px'  fill="#000000" xmlns="http://www.w3.org/2000/svg" xmlns:xlink="http://www.w3.org/1999/xlink" version="1.1" x="0px" y="0px" viewBox="0 0 100 100" style="enable-background:new 0 0 100 100;" xml:space="preserve"><path d="M89.28,41c-0.78,0-1.45-0.53-1.67-1.32c-0.86-3.13-2.11-6.15-3.71-8.97c-0.41-0.72-0.31-1.57,0.24-2.12  c2.23-2.23,2.23-5.86,0-8.08l-4.64-4.64c-1.08-1.08-2.51-1.67-4.04-1.67s-2.96,0.59-4.04,1.67c-0.55,0.55-1.41,0.65-2.12,0.24  c-2.82-1.61-5.84-2.86-8.97-3.71C59.53,12.17,59,11.5,59,10.72C59,7.56,56.44,5,53.28,5h-6.57C43.56,5,41,7.56,41,10.72  c0,0.78-0.53,1.45-1.32,1.67c-3.13,0.86-6.15,2.1-8.97,3.71c-0.72,0.41-1.57,0.31-2.12-0.24c-2.23-2.23-5.86-2.23-8.08,0l-4.64,4.64  c-2.23,2.23-2.23,5.86,0,8.08c0.55,0.55,0.65,1.4,0.24,2.12c-1.61,2.82-2.86,5.84-3.71,8.97C12.17,40.47,11.5,41,10.72,41  C7.56,41,5,43.56,5,46.72v6.57C5,56.44,7.56,59,10.72,59c0.78,0,1.45,0.53,1.67,1.32c0.86,3.13,2.1,6.15,3.71,8.97  c0.41,0.71,0.31,1.57-0.24,2.12c-1.08,1.08-1.67,2.52-1.67,4.04s0.59,2.96,1.67,4.04l4.64,4.64c2.23,2.23,5.85,2.23,8.08,0  c0.55-0.55,1.4-0.65,2.12-0.24c2.82,1.61,5.84,2.86,8.97,3.71C40.47,87.83,41,88.5,41,89.28c0,3.15,2.56,5.72,5.72,5.72h6.57  c3.15,0,5.72-2.56,5.72-5.72c0-0.78,0.53-1.45,1.32-1.67c3.13-0.86,6.15-2.11,8.97-3.71c0.72-0.41,1.57-0.31,2.12,0.24  c2.23,2.23,5.86,2.23,8.08,0l4.64-4.64c2.23-2.23,2.23-5.86,0-8.09c-0.55-0.55-0.65-1.4-0.24-2.12c1.61-2.82,2.86-5.84,3.71-8.97  C87.83,59.53,88.5,59,89.28,59c3.15,0,5.72-2.56,5.72-5.72v-6.57C95,43.56,92.44,41,89.28,41z M91,53.28c0,0.95-0.77,1.72-1.72,1.72  c-2.57,0-4.84,1.75-5.53,4.27c-0.77,2.81-1.89,5.52-3.33,8.05c-1.29,2.27-0.92,5.11,0.89,6.93c0.67,0.67,0.67,1.76,0,2.43  l-4.64,4.64c-0.67,0.67-1.76,0.67-2.43,0c-1.82-1.82-4.66-2.18-6.93-0.89c-2.53,1.44-5.23,2.56-8.04,3.33  C56.75,84.44,55,86.71,55,89.28c0,0.95-0.77,1.72-1.72,1.72h-6.57C45.77,91,45,90.23,45,89.28c0-2.57-1.75-4.84-4.27-5.53  c-2.81-0.77-5.52-1.89-8.05-3.33c-0.9-0.51-1.9-0.77-2.89-0.77c-1.49,0-2.95,0.57-4.04,1.66c-0.67,0.67-1.76,0.67-2.43,0l-4.64-4.64  c-0.32-0.32-0.5-0.76-0.5-1.21c0-0.46,0.18-0.89,0.5-1.21c1.81-1.81,2.18-4.66,0.89-6.93c-1.44-2.53-2.56-5.24-3.33-8.04  C15.56,56.75,13.29,55,10.72,55C9.77,55,9,54.23,9,53.28v-6.57C9,45.77,9.77,45,10.72,45c2.57,0,4.84-1.75,5.53-4.27  c0.77-2.81,1.89-5.52,3.33-8.05c1.29-2.26,0.92-5.11-0.89-6.93c-0.67-0.67-0.67-1.76,0-2.43l4.64-4.64c0.67-0.67,1.76-0.67,2.43,0  c1.81,1.82,4.66,2.18,6.93,0.89c2.53-1.44,5.24-2.56,8.05-3.33c2.51-0.69,4.27-2.96,4.27-5.53C45,9.77,45.77,9,46.72,9h6.57  C54.23,9,55,9.77,55,10.72c0,2.57,1.75,4.84,4.27,5.53c2.81,0.77,5.52,1.89,8.04,3.33c2.27,1.29,5.12,0.92,6.93-0.89  c0.65-0.65,1.78-0.65,2.43,0l4.64,4.64c0.67,0.67,0.67,1.76,0,2.43c-1.82,1.81-2.18,4.66-0.89,6.93c1.44,2.53,2.56,5.23,3.33,8.05  c0.69,2.51,2.96,4.27,5.53,4.27c0.95,0,1.72,0.77,1.72,1.72V53.28z M50,22c-15.44,0-28,12.56-28,28s12.56,28,28,28s28-12.56,28-28  S65.44,22,50,22z M50,74c-13.23,0-24-10.77-24-24c0-13.23,10.77-24,24-24c13.23,0,24,10.77,24,24C74,63.23,63.23,74,50,74z"></path></svg>